<svg xmlns="http://www.w3.org/2000/svg" viewBox="0 0 221.32 232.07" role="img" aria-label="Energiebehoud">
  <path fill="#ffffff" d="M110.72,0L0,86.81v145.26h68.05c8.69,0,17.16-3.66,23.22-9.95l19.22-20.24,18.07,19.79c6.06,6.63,14.64,10.41,23.68,10.41h69.08V86.81L110.72,0ZM94.93,118.49l1.49-1.49c7.66-7.66,21.05-7.66,28.71,0l1.49,1.49c7.89,7.89,7.89,20.82,0,28.71l-15.78,15.78-.34-.23-.11.11-15.56-15.56c-3.77-3.77-5.95-8.92-5.95-14.3.11-5.6,2.29-10.75,6.06-14.53ZM145.72,166.19c18.41-18.41,18.41-48.38,0-66.8l-1.6-1.6c-8.92-8.92-20.7-13.73-33.28-13.73h-.11c-12.7,0-24.48,4.92-33.4,13.84l-1.49,1.49c-18.41,18.41-18.3,48.5.11,66.91l16.01,16.01-20.13,21.16c-.91,1.03-2.29,1.6-3.66,1.6H26.99v-105.23L110.72,34.2l83.72,65.65v105.23h-42.09c-1.37,0-2.75-.57-3.66-1.6l-19.22-21.05,16.24-16.24Z"/>
</svg>
